<svg xmlns="http://www.w3.org/2000/svg" xmlns:xlink="http://www.w3.org/1999/xlink" width="500" zoomAndPan="magnify" viewBox="0 0 375 374.999991" height="500" preserveAspectRatio="xMidYMid meet" version="1.0"><defs><g/><clipPath id="6d50267376"><path d="M 0.679688 85 L 74 85 L 74 266 L 0.679688 266 Z M 0.679688 85 " clip-rule="nonzero"/></clipPath><clipPath id="bb35938bee"><rect x="0" width="272" y="0" height="311"/></clipPath></defs><g transform="matrix(1, 0, 0, 1, 67, 31)"><g clip-path="url(#bb35938bee)"><g clip-path="url(#6d50267376)"><g fill="#ffffff" fill-opacity="1"><g transform="translate(2.449341, 222.603603)"><g><path d="M 34.890625 42.921875 C 26.921875 42.921875 20.222656 41.414062 14.796875 38.40625 C 9.378906 35.40625 5.296875 31.289062 2.546875 26.0625 C -0.191406 20.84375 -1.5625 14.898438 -1.5625 8.234375 C -1.5625 1.566406 -0.257812 -5.519531 2.34375 -13.03125 C 4.957031 -20.550781 9.300781 -27.96875 15.375 -35.28125 C 21.457031 -42.601562 29.660156 -49.398438 39.984375 -55.671875 L 39.984375 -109.765625 L 12.734375 -109.765625 L 12.734375 -137.203125 L 71.15625 -137.203125 L 71.15625 1.5625 C 71.15625 9.800781 69.847656 17.019531 67.234375 23.21875 C 64.617188 29.425781 60.628906 34.257812 55.265625 37.71875 C 49.910156 41.1875 43.117188 42.921875 34.890625 42.921875 Z M 33.125 14.703125 C 34.695312 14.703125 36.066406 14.242188 37.234375 13.328125 C 38.410156 12.410156 39.289062 11.132812 39.875 9.5 C 40.46875 7.875 40.765625 5.945312 40.765625 3.71875 L 40.765625 -26.265625 C 37.109375 -23.253906 34.132812 -20.148438 31.84375 -16.953125 C 29.5625 -13.753906 27.894531 -10.453125 26.84375 -7.046875 C 25.800781 -3.648438 25.28125 0.0664062 25.28125 4.109375 C 25.28125 7.515625 26.0625 10.128906 27.625 11.953125 C 29.195312 13.785156 31.03125 14.703125 33.125 14.703125 Z M 33.125 14.703125 "/></g></g></g></g><g fill="#ffffff" fill-opacity="1"><g transform="translate(59.929506, 222.603999)"><g><path d="M 11.953125 0 L 11.953125 -137.203125 L 91.546875 -137.203125 C 98.335938 -137.203125 104.507812 -135.695312 110.0625 -132.6875 C 115.613281 -129.6875 120.054688 -125.507812 123.390625 -120.15625 C 126.722656 -114.800781 128.390625 -108.460938 128.390625 -101.140625 C 128.390625 -96.828125 127.570312 -92.710938 125.9375 -88.796875 C 124.300781 -84.878906 122.015625 -81.414062 119.078125 -78.40625 C 116.140625 -75.394531 112.773438 -72.976562 108.984375 -71.15625 C 113.429688 -69.320312 117.382812 -66.707031 120.84375 -63.3125 C 124.300781 -59.914062 127.039062 -55.992188 129.0625 -51.546875 C 131.09375 -47.109375 132.109375 -42.34375 132.109375 -37.25 C 132.109375 -29.789062 130.375 -23.253906 126.90625 -17.640625 C 123.445312 -12.023438 118.84375 -7.679688 113.09375 -4.609375 C 107.34375 -1.535156 100.941406 0 93.890625 0 Z M 44.890625 -27.25 L 85.265625 -27.25 C 88.015625 -27.25 90.46875 -27.898438 92.625 -29.203125 C 94.78125 -30.515625 96.507812 -32.28125 97.8125 -34.5 C 99.113281 -36.71875 99.765625 -39.132812 99.765625 -41.75 C 99.765625 -44.5 99.113281 -46.953125 97.8125 -49.109375 C 96.507812 -51.265625 94.78125 -52.992188 92.625 -54.296875 C 90.46875 -55.597656 88.015625 -56.25 85.265625 -56.25 L 44.890625 -56.25 Z M 44.890625 -82.515625 L 81.9375 -82.515625 C 84.550781 -82.515625 86.867188 -83.132812 88.890625 -84.375 C 90.921875 -85.625 92.519531 -87.257812 93.6875 -89.28125 C 94.863281 -91.3125 95.453125 -93.566406 95.453125 -96.046875 C 95.453125 -98.660156 94.863281 -100.976562 93.6875 -103 C 92.519531 -105.03125 90.921875 -106.664062 88.890625 -107.90625 C 86.867188 -109.144531 84.550781 -109.765625 81.9375 -109.765625 L 44.890625 -109.765625 Z M 44.890625 -82.515625 "/></g></g></g><g fill="#ffffff" fill-opacity="1"><g transform="translate(167.526395, 222.603999)"><g/></g></g><g fill="#ffffff" fill-opacity="1"><g transform="translate(187.904549, 222.603999)"><g><path d="M 26.265625 2.359375 C 21.035156 2.359375 16.554688 0.492188 12.828125 -3.234375 C 9.109375 -6.960938 7.25 -11.375 7.25 -16.46875 C 7.25 -21.695312 9.109375 -26.171875 12.828125 -29.890625 C 16.554688 -33.617188 21.035156 -35.484375 26.265625 -35.484375 C 31.359375 -35.484375 35.765625 -33.617188 39.484375 -29.890625 C 43.210938 -26.171875 45.078125 -21.695312 45.078125 -16.46875 C 45.078125 -13.070312 44.226562 -9.9375 42.53125 -7.0625 C 40.832031 -4.1875 38.578125 -1.894531 35.765625 -0.1875 C 32.960938 1.507812 29.796875 2.359375 26.265625 2.359375 Z M 26.265625 2.359375 "/></g></g></g><g fill="#ffffff" fill-opacity="1"><g transform="translate(208.690175, 222.603999)"><g/></g></g><g fill="#ffffff" fill-opacity="1"><g transform="translate(229.068329, 222.603999)"><g/></g></g><g fill="#ffffff" fill-opacity="1"><g transform="translate(249.446483, 222.603999)"><g/></g></g></g></g></svg>